<svg xmlns="http://www.w3.org/2000/svg" viewBox="0 0 288 238" width="288" height="238">
	<style>
		tspan { white-space:pre }
		.shp0 { fill: #65a0d6 } 
		.shp1 { fill: #444b54 } 
	</style>
	<g id="Layer">
		<g id="Layer">
			<path id="Layer" class="shp0" d="M261.43 22.46L261.43 150.19L93.33 150.19L38.59 219.54L38.59 150.19L20.57 150.19L20.57 22.46L261.43 22.46Z" />
			<path id="Layer" fill-rule="evenodd" class="shp1" d="M38.59 229.54C37.49 229.54 36.39 229.36 35.31 228.98C31.29 227.59 28.59 223.8 28.59 219.54L28.59 160.19L20.57 160.19C15.05 160.19 10.57 155.71 10.57 150.19L10.57 22.46C10.57 16.94 15.05 12.46 20.57 12.46L261.43 12.46C266.96 12.46 271.43 16.94 271.43 22.46L271.43 150.19C271.43 155.71 266.96 160.19 261.43 160.19L98.18 160.19L46.44 225.73C44.51 228.18 41.59 229.54 38.59 229.54ZM30.57 140.19L38.59 140.19C44.11 140.19 48.59 144.67 48.59 150.19L48.59 190.73L85.48 144C87.38 141.59 90.27 140.19 93.33 140.19L251.43 140.19L251.43 32.46L30.57 32.46L30.57 140.19Z" />
		</g>
		<g id="Layer">
			<path id="Layer" class="shp1" d="M80.36 127L80.36 127C77.71 127 75.16 125.94 73.29 124.07L55.19 105.96C51.28 102.06 51.28 95.73 55.19 91.82C59.09 87.92 65.42 87.92 69.33 91.82L80.36 102.85L120.65 62.56C124.56 58.66 130.89 58.66 134.79 62.56C138.7 66.47 138.7 72.8 134.79 76.71L87.43 124.07C85.56 125.94 83.01 127 80.36 127Z" />
		</g>
		<g id="Layer">
			<g id="Layer">
				<path id="Layer" class="shp1" d="M218.7 125.36C216.06 125.36 213.43 124.32 211.46 122.26L169.45 78.17C165.64 74.17 165.79 67.84 169.79 64.03C173.79 60.22 180.12 60.37 183.93 64.37L225.94 108.46C229.75 112.46 229.6 118.79 225.6 122.6C223.66 124.44 221.18 125.36 218.7 125.36Z" />
			</g>
			<g id="Layer">
				<path id="Layer" class="shp1" d="M175.65 124.32C173.01 124.32 170.38 123.28 168.41 121.21C164.6 117.22 164.75 110.89 168.75 107.08L212.84 65.07C216.84 61.26 223.17 61.42 226.98 65.41C230.79 69.41 230.64 75.74 226.64 79.55L182.55 121.56C180.61 123.4 178.13 124.32 175.65 124.32Z" />
			</g>
		</g>
		<g id="Layer">
			<path id="Layer" fill-rule="evenodd" class="shp1" d="M38.59 229.54C37.49 229.54 36.39 229.36 35.31 228.98C31.29 227.59 28.59 223.8 28.59 219.54L28.59 160.19L20.57 160.19C15.05 160.19 10.57 155.71 10.57 150.19L10.57 22.46C10.57 16.94 15.05 12.46 20.57 12.46L261.43 12.46C266.96 12.46 271.43 16.94 271.43 22.46L271.43 150.19C271.43 155.71 266.96 160.19 261.43 160.19L98.18 160.19L46.44 225.73C44.51 228.18 41.59 229.54 38.59 229.54ZM30.57 140.19L38.59 140.19C44.11 140.19 48.59 144.67 48.59 150.19L48.59 190.73L85.48 144C87.38 141.59 90.27 140.19 93.33 140.19L251.43 140.19L251.43 32.46L30.57 32.46L30.57 140.19Z" />
		</g>
		<g id="Layer">
			<path id="Layer" class="shp1" d="M80.36 127L80.36 127C77.71 127 75.16 125.94 73.29 124.07L55.19 105.96C51.28 102.06 51.28 95.73 55.19 91.82C59.09 87.92 65.42 87.92 69.33 91.82L80.36 102.85L120.65 62.56C124.56 58.66 130.89 58.66 134.79 62.56C138.7 66.47 138.7 72.8 134.79 76.71L87.43 124.07C85.56 125.94 83.01 127 80.36 127Z" />
		</g>
		<g id="Layer">
			<g id="Layer">
				<path id="Layer" class="shp1" d="M218.7 125.36C216.06 125.36 213.43 124.32 211.46 122.26L169.45 78.17C165.64 74.17 165.79 67.84 169.79 64.03C173.79 60.22 180.12 60.37 183.93 64.37L225.94 108.46C229.75 112.46 229.6 118.79 225.6 122.6C223.66 124.44 221.18 125.36 218.7 125.36Z" />
			</g>
			<g id="Layer">
				<path id="Layer" class="shp1" d="M175.65 124.32C173.01 124.32 170.38 123.28 168.41 121.21C164.6 117.22 164.75 110.89 168.75 107.08L212.84 65.07C216.84 61.26 223.17 61.42 226.98 65.41C230.79 69.41 230.64 75.74 226.64 79.55L182.55 121.56C180.61 123.4 178.13 124.32 175.65 124.32Z" />
			</g>
		</g>
	</g>
</svg>